<mxfile host="app.diagrams.net" modified="2023-01-31T03:42:39.219Z" agent="5.0 (Windows NT 10.0; Win64; x64) AppleWebKit/537.36 (KHTML, like Gecko) Chrome/109.0.0.0 Safari/537.36" etag="UBmbNTD55lQr1jkexJpL" version="20.8.5" type="github">
  <diagram id="C5RBs43oDa-KdzZeNtuy" name="Page-1">
    <mxGraphModel dx="1434" dy="774" grid="1" gridSize="10" guides="1" tooltips="1" connect="1" arrows="1" fold="1" page="1" pageScale="1" pageWidth="827" pageHeight="1169" math="0" shadow="0">
      <root>
        <mxCell id="WIyWlLk6GJQsqaUBKTNV-0" />
        <mxCell id="WIyWlLk6GJQsqaUBKTNV-1" parent="WIyWlLk6GJQsqaUBKTNV-0" />
        <mxCell id="srRduSmBOCshhfXhIVz3-8" style="edgeStyle=orthogonalEdgeStyle;rounded=0;orthogonalLoop=1;jettySize=auto;html=1;exitX=1;exitY=0.5;exitDx=0;exitDy=0;entryX=0;entryY=0.5;entryDx=0;entryDy=0;" edge="1" parent="WIyWlLk6GJQsqaUBKTNV-1" source="srRduSmBOCshhfXhIVz3-0" target="srRduSmBOCshhfXhIVz3-4">
          <mxGeometry relative="1" as="geometry" />
        </mxCell>
        <mxCell id="srRduSmBOCshhfXhIVz3-0" value="recommendNew" style="shape=parallelogram;perimeter=parallelogramPerimeter;whiteSpace=wrap;html=1;fixedSize=1;" vertex="1" parent="WIyWlLk6GJQsqaUBKTNV-1">
          <mxGeometry x="140" y="280" width="120" height="40" as="geometry" />
        </mxCell>
        <mxCell id="srRduSmBOCshhfXhIVz3-1" style="edgeStyle=orthogonalEdgeStyle;rounded=0;orthogonalLoop=1;jettySize=auto;html=1;exitX=0.5;exitY=1;exitDx=0;exitDy=0;entryX=0.5;entryY=0;entryDx=0;entryDy=0;" edge="1" parent="WIyWlLk6GJQsqaUBKTNV-1" source="srRduSmBOCshhfXhIVz3-4" target="srRduSmBOCshhfXhIVz3-5">
          <mxGeometry relative="1" as="geometry" />
        </mxCell>
        <mxCell id="srRduSmBOCshhfXhIVz3-2" value="是" style="edgeLabel;html=1;align=center;verticalAlign=middle;resizable=0;points=[];" vertex="1" connectable="0" parent="srRduSmBOCshhfXhIVz3-1">
          <mxGeometry x="0.1913" relative="1" as="geometry">
            <mxPoint as="offset" />
          </mxGeometry>
        </mxCell>
        <mxCell id="srRduSmBOCshhfXhIVz3-3" style="edgeStyle=orthogonalEdgeStyle;rounded=0;orthogonalLoop=1;jettySize=auto;html=1;exitX=1;exitY=0.5;exitDx=0;exitDy=0;entryX=0;entryY=0.5;entryDx=0;entryDy=0;" edge="1" parent="WIyWlLk6GJQsqaUBKTNV-1" source="srRduSmBOCshhfXhIVz3-4" target="srRduSmBOCshhfXhIVz3-9">
          <mxGeometry relative="1" as="geometry">
            <mxPoint x="440" y="300" as="targetPoint" />
          </mxGeometry>
        </mxCell>
        <mxCell id="srRduSmBOCshhfXhIVz3-4" value="缓存中有排序&lt;br&gt;好的数据" style="rhombus;whiteSpace=wrap;html=1;shadow=0;fontFamily=Helvetica;fontSize=12;align=center;strokeWidth=1;spacing=6;spacingTop=-4;" vertex="1" parent="WIyWlLk6GJQsqaUBKTNV-1">
          <mxGeometry x="294" y="260" width="120" height="80" as="geometry" />
        </mxCell>
        <mxCell id="srRduSmBOCshhfXhIVz3-19" style="edgeStyle=orthogonalEdgeStyle;rounded=0;orthogonalLoop=1;jettySize=auto;html=1;exitX=1;exitY=0.5;exitDx=0;exitDy=0;entryX=0;entryY=0.5;entryDx=0;entryDy=0;" edge="1" parent="WIyWlLk6GJQsqaUBKTNV-1" source="srRduSmBOCshhfXhIVz3-5" target="srRduSmBOCshhfXhIVz3-18">
          <mxGeometry relative="1" as="geometry" />
        </mxCell>
        <mxCell id="srRduSmBOCshhfXhIVz3-5" value="Redis" style="rounded=1;whiteSpace=wrap;html=1;" vertex="1" parent="WIyWlLk6GJQsqaUBKTNV-1">
          <mxGeometry x="294" y="540" width="120" height="60" as="geometry" />
        </mxCell>
        <mxCell id="srRduSmBOCshhfXhIVz3-11" style="edgeStyle=orthogonalEdgeStyle;rounded=0;orthogonalLoop=1;jettySize=auto;html=1;exitX=1;exitY=0.5;exitDx=0;exitDy=0;entryX=0;entryY=0.5;entryDx=0;entryDy=0;" edge="1" parent="WIyWlLk6GJQsqaUBKTNV-1" source="srRduSmBOCshhfXhIVz3-9" target="srRduSmBOCshhfXhIVz3-10">
          <mxGeometry relative="1" as="geometry" />
        </mxCell>
        <mxCell id="srRduSmBOCshhfXhIVz3-9" value="过滤全球购门店&lt;br&gt;filterGlobalStore" style="rounded=1;whiteSpace=wrap;html=1;" vertex="1" parent="WIyWlLk6GJQsqaUBKTNV-1">
          <mxGeometry x="440" y="270" width="120" height="60" as="geometry" />
        </mxCell>
        <mxCell id="srRduSmBOCshhfXhIVz3-15" style="edgeStyle=orthogonalEdgeStyle;rounded=0;orthogonalLoop=1;jettySize=auto;html=1;exitX=1;exitY=0.5;exitDx=0;exitDy=0;entryX=0;entryY=0.5;entryDx=0;entryDy=0;" edge="1" parent="WIyWlLk6GJQsqaUBKTNV-1" source="srRduSmBOCshhfXhIVz3-10" target="srRduSmBOCshhfXhIVz3-12">
          <mxGeometry relative="1" as="geometry" />
        </mxCell>
        <mxCell id="srRduSmBOCshhfXhIVz3-10" value="请求有数/山姆推荐接口&lt;br&gt;asyncReqYouShuStandard" style="rounded=1;whiteSpace=wrap;html=1;" vertex="1" parent="WIyWlLk6GJQsqaUBKTNV-1">
          <mxGeometry x="580" y="270" width="150" height="60" as="geometry" />
        </mxCell>
        <mxCell id="srRduSmBOCshhfXhIVz3-16" style="edgeStyle=orthogonalEdgeStyle;rounded=0;orthogonalLoop=1;jettySize=auto;html=1;exitX=0.5;exitY=1;exitDx=0;exitDy=0;entryX=0.5;entryY=0;entryDx=0;entryDy=0;" edge="1" parent="WIyWlLk6GJQsqaUBKTNV-1" source="srRduSmBOCshhfXhIVz3-12" target="srRduSmBOCshhfXhIVz3-13">
          <mxGeometry relative="1" as="geometry" />
        </mxCell>
        <mxCell id="srRduSmBOCshhfXhIVz3-12" value="按池子比率 组装返回数据&lt;br&gt;filterResult" style="rounded=1;whiteSpace=wrap;html=1;" vertex="1" parent="WIyWlLk6GJQsqaUBKTNV-1">
          <mxGeometry x="770" y="270" width="120" height="60" as="geometry" />
        </mxCell>
        <mxCell id="srRduSmBOCshhfXhIVz3-17" style="edgeStyle=orthogonalEdgeStyle;rounded=0;orthogonalLoop=1;jettySize=auto;html=1;exitX=0.5;exitY=1;exitDx=0;exitDy=0;entryX=0.5;entryY=0;entryDx=0;entryDy=0;" edge="1" parent="WIyWlLk6GJQsqaUBKTNV-1" source="srRduSmBOCshhfXhIVz3-13" target="srRduSmBOCshhfXhIVz3-14">
          <mxGeometry relative="1" as="geometry" />
        </mxCell>
        <mxCell id="srRduSmBOCshhfXhIVz3-13" value="过滤&lt;br&gt;asyncFilterSpuIdList" style="rounded=1;whiteSpace=wrap;html=1;" vertex="1" parent="WIyWlLk6GJQsqaUBKTNV-1">
          <mxGeometry x="770" y="370" width="120" height="60" as="geometry" />
        </mxCell>
        <mxCell id="srRduSmBOCshhfXhIVz3-20" style="edgeStyle=orthogonalEdgeStyle;rounded=0;orthogonalLoop=1;jettySize=auto;html=1;exitX=0.5;exitY=1;exitDx=0;exitDy=0;entryX=0.5;entryY=0;entryDx=0;entryDy=0;" edge="1" parent="WIyWlLk6GJQsqaUBKTNV-1" source="srRduSmBOCshhfXhIVz3-14" target="srRduSmBOCshhfXhIVz3-18">
          <mxGeometry relative="1" as="geometry" />
        </mxCell>
        <mxCell id="srRduSmBOCshhfXhIVz3-14" value="写入缓存&lt;br&gt;writeRecommendSpuIdsToRedis" style="rounded=1;whiteSpace=wrap;html=1;" vertex="1" parent="WIyWlLk6GJQsqaUBKTNV-1">
          <mxGeometry x="725" y="450" width="210" height="50" as="geometry" />
        </mxCell>
        <mxCell id="srRduSmBOCshhfXhIVz3-28" style="edgeStyle=orthogonalEdgeStyle;rounded=0;orthogonalLoop=1;jettySize=auto;html=1;exitX=0.5;exitY=1;exitDx=0;exitDy=0;entryX=0.5;entryY=0;entryDx=0;entryDy=0;" edge="1" parent="WIyWlLk6GJQsqaUBKTNV-1" source="srRduSmBOCshhfXhIVz3-18" target="srRduSmBOCshhfXhIVz3-21">
          <mxGeometry relative="1" as="geometry" />
        </mxCell>
        <mxCell id="srRduSmBOCshhfXhIVz3-18" value="有数未返回数据时，从默认商品池(poolId:666L)中获取200条数据返回&lt;br&gt;supplementFromBasicsPool" style="rounded=1;whiteSpace=wrap;html=1;" vertex="1" parent="WIyWlLk6GJQsqaUBKTNV-1">
          <mxGeometry x="710" y="540" width="240" height="60" as="geometry" />
        </mxCell>
        <mxCell id="srRduSmBOCshhfXhIVz3-29" style="edgeStyle=orthogonalEdgeStyle;rounded=0;orthogonalLoop=1;jettySize=auto;html=1;exitX=0.5;exitY=1;exitDx=0;exitDy=0;entryX=0.5;entryY=0;entryDx=0;entryDy=0;" edge="1" parent="WIyWlLk6GJQsqaUBKTNV-1" source="srRduSmBOCshhfXhIVz3-21" target="srRduSmBOCshhfXhIVz3-22">
          <mxGeometry relative="1" as="geometry" />
        </mxCell>
        <mxCell id="srRduSmBOCshhfXhIVz3-21" value="设置品类多样性策略&lt;br&gt;categoryDiversityAlgorithmUtil.getSpuIds" style="rounded=1;whiteSpace=wrap;html=1;" vertex="1" parent="WIyWlLk6GJQsqaUBKTNV-1">
          <mxGeometry x="695" y="630" width="270" height="60" as="geometry" />
        </mxCell>
        <mxCell id="srRduSmBOCshhfXhIVz3-30" style="edgeStyle=orthogonalEdgeStyle;rounded=0;orthogonalLoop=1;jettySize=auto;html=1;exitX=0.5;exitY=1;exitDx=0;exitDy=0;entryX=0.5;entryY=0;entryDx=0;entryDy=0;" edge="1" parent="WIyWlLk6GJQsqaUBKTNV-1" source="srRduSmBOCshhfXhIVz3-22" target="srRduSmBOCshhfXhIVz3-23">
          <mxGeometry relative="1" as="geometry" />
        </mxCell>
        <mxCell id="srRduSmBOCshhfXhIVz3-22" value="设置置顶商品&lt;br&gt;setRecommendTopGoods" style="rounded=1;whiteSpace=wrap;html=1;" vertex="1" parent="WIyWlLk6GJQsqaUBKTNV-1">
          <mxGeometry x="770" y="730" width="120" height="60" as="geometry" />
        </mxCell>
        <mxCell id="srRduSmBOCshhfXhIVz3-31" style="edgeStyle=orthogonalEdgeStyle;rounded=0;orthogonalLoop=1;jettySize=auto;html=1;exitX=0;exitY=0.5;exitDx=0;exitDy=0;entryX=1;entryY=0.5;entryDx=0;entryDy=0;" edge="1" parent="WIyWlLk6GJQsqaUBKTNV-1" source="srRduSmBOCshhfXhIVz3-23" target="srRduSmBOCshhfXhIVz3-25">
          <mxGeometry relative="1" as="geometry" />
        </mxCell>
        <mxCell id="srRduSmBOCshhfXhIVz3-23" value="通过spuId列表获取es的数据&lt;br&gt;querySpuDetailInfoBySpuIdList" style="rounded=1;whiteSpace=wrap;html=1;" vertex="1" parent="WIyWlLk6GJQsqaUBKTNV-1">
          <mxGeometry x="735" y="820" width="190" height="70" as="geometry" />
        </mxCell>
        <mxCell id="srRduSmBOCshhfXhIVz3-27" style="edgeStyle=orthogonalEdgeStyle;rounded=0;orthogonalLoop=1;jettySize=auto;html=1;exitX=0;exitY=0.5;exitDx=0;exitDy=0;entryX=1;entryY=0.5;entryDx=0;entryDy=0;" edge="1" parent="WIyWlLk6GJQsqaUBKTNV-1" source="srRduSmBOCshhfXhIVz3-25" target="srRduSmBOCshhfXhIVz3-26">
          <mxGeometry relative="1" as="geometry" />
        </mxCell>
        <mxCell id="srRduSmBOCshhfXhIVz3-25" value="封装最终返回的数据&lt;br&gt;buildSpuRecommendResponse" style="rounded=1;whiteSpace=wrap;html=1;" vertex="1" parent="WIyWlLk6GJQsqaUBKTNV-1">
          <mxGeometry x="480" y="825" width="215" height="60" as="geometry" />
        </mxCell>
        <mxCell id="srRduSmBOCshhfXhIVz3-26" value="返回" style="shape=parallelogram;perimeter=parallelogramPerimeter;whiteSpace=wrap;html=1;fixedSize=1;" vertex="1" parent="WIyWlLk6GJQsqaUBKTNV-1">
          <mxGeometry x="294" y="825" width="120" height="60" as="geometry" />
        </mxCell>
      </root>
    </mxGraphModel>
  </diagram>
</mxfile>
